<svg xmlns:xlink="http://www.w3.org/1999/xlink" width="1383.36" xmlns="http://www.w3.org/2000/svg" height="152" id="screenshot-cbd46358-06b3-8097-8002-b4309bc73324" viewBox="0 0 1383.36 152" style="-webkit-print-color-adjust: exact;" fill="none" version="1.1"><g id="shape-cbd46358-06b3-8097-8002-b4309bc73324" width="1360" height="80" rx="0" ry="0" style="fill: rgb(0, 0, 0);"><g id="shape-cbd46358-06b3-8097-8002-b4309bc773c6"><g class="fills" id="fills-cbd46358-06b3-8097-8002-b4309bc773c6"><rect rx="12" ry="12" x="0" y="42" transform="matrix(1.000000, 0.000000, 0.000000, 1.000000, 0.000000, 0.000000)" width="1360" height="80" style="fill: rgb(108, 166, 199);"/></g></g><g id="shape-cbd46358-06b3-8097-8002-b4309bc773c7" mask="url(#rumext-id-3-mask0_568_273)" rx="0" ry="0" style="fill: rgb(0, 0, 0);"><defs><mask width="1360" maskUnits="userSpaceOnUse" height="80" class="svg-def" x="0" id="rumext-id-3-mask0_568_273" style="mask-type: alpha;" data-old-y="42" data-old-width="1360" data-old-x="0" y="42" data-old-height="80"><g class="svg-mask-wrapper" transform="matrix(1.000000, 0.000000, 0.000000, 1.000000, 0.000000, 42.000000)"><rect width="1360" height="80" rx="12" fill="#00A3FF"/></g></mask></defs><g id="shape-cbd46358-06b3-8097-8002-b4309bc7af82" filter="url(#rumext-id-4-filter0_f_568_273)" rx="0" ry="0" style="fill: rgb(0, 0, 0);"><defs><filter filterUnits="userSpaceOnUse" width="175.36400000000003" height="106" color-interpolation-filters="sRGB" class="svg-def" x="1212" id="rumext-id-4-filter0_f_568_273" data-old-y="-4" data-old-width="175.36400000000003" data-old-x="1212" y="-4" data-old-height="106"><feFlood flood-opacity="0" result="BackgroundImageFix"/><feBlend mode="normal" in="SourceGraphic" in2="BackgroundImageFix" result="shape"/><feGaussianBlur stdDeviation="2" result="effect1_foregroundBlur_568_273"/></filter></defs><g id="shape-cbd46358-06b3-8097-8002-b4309bc802a3"><g class="fills" id="fills-cbd46358-06b3-8097-8002-b4309bc802a3"><path fill-rule="evenodd" clip-rule="evenodd" rx="0" ry="0" d="M1243.220,42.011C1246.610,18.259,1267.040,0.000,1291.730,0.000C1307.810,0.000,1322.090,7.752,1331.020,19.724C1334.880,18.486,1339.000,17.818,1343.270,17.818C1365.410,17.818,1383.360,35.767,1383.360,57.909C1383.360,80.051,1365.410,98.000,1343.270,98.000L1291.730,98.000L1244.000,98.000L1240.180,98.000L1240.180,97.742C1226.520,95.880,1216.000,84.169,1216.000,70.000C1216.000,54.796,1228.120,42.423,1243.220,42.011ZZ" style="fill: rgb(216, 216, 216); fill-opacity: 0.7;"/></g></g></g><g id="shape-cbd46358-06b3-8097-8002-b4309bc84e6a" filter="url(#rumext-id-6-filter1_f_568_273)" rx="0" ry="0" style="fill: rgb(0, 0, 0);"><defs><filter filterUnits="userSpaceOnUse" width="175.36400000000003" height="106" color-interpolation-filters="sRGB" class="svg-def" x="1161" id="rumext-id-6-filter1_f_568_273" data-old-y="50" data-old-width="175.36400000000003" data-old-x="1161" y="50" data-old-height="106"><feFlood flood-opacity="0" result="BackgroundImageFix"/><feBlend mode="normal" in="SourceGraphic" in2="BackgroundImageFix" result="shape"/><feGaussianBlur stdDeviation="2" result="effect1_foregroundBlur_568_273"/></filter></defs><g id="shape-cbd46358-06b3-8097-8002-b4309bc8d5b8"><g class="fills" id="fills-cbd46358-06b3-8097-8002-b4309bc8d5b8"><path fill-rule="evenodd" clip-rule="evenodd" rx="0" ry="0" d="M1192.220,96.011C1195.610,72.259,1216.040,54.000,1240.730,54.000C1256.810,54.000,1271.090,61.752,1280.020,73.724C1283.880,72.486,1288.000,71.818,1292.270,71.818C1314.410,71.818,1332.360,89.767,1332.360,111.909C1332.360,134.051,1314.410,152.000,1292.270,152.000L1240.730,152.000L1193.000,152.000L1189.180,152.000L1189.180,151.742C1175.520,149.880,1165.000,138.169,1165.000,124.000C1165.000,108.796,1177.120,96.423,1192.220,96.011ZZ" style="fill: rgb(216, 216, 216); fill-opacity: 0.7;"/></g></g></g></g><g id="shape-cbd46358-06b3-8097-8002-b431030354b5"><g class="fills" id="fills-cbd46358-06b3-8097-8002-b431030354b5"><rect rx="7" ry="7" x="1084" y="75" transform="matrix(1.000000, 0.000000, 0.000000, 1.000000, 0.000000, 0.000000)" width="181" height="14" style="fill: rgb(177, 178, 181); fill-opacity: 0.25;"/></g></g><g id="shape-cbd46358-06b3-8097-8002-b431030354b6"><g class="fills" id="fills-cbd46358-06b3-8097-8002-b431030354b6"><rect rx="7" ry="7" x="1144" y="54" transform="matrix(1.000000, 0.000000, 0.000000, 1.000000, 0.000000, 0.000000)" width="181" height="14" style="fill: rgb(177, 178, 181); fill-opacity: 0.25;"/></g></g><g id="shape-cbd46358-06b3-8097-8002-b431030354b7"><g class="fills" id="fills-cbd46358-06b3-8097-8002-b431030354b7"><rect rx="7" ry="7" x="1134" y="96" transform="matrix(1.000000, 0.000000, 0.000000, 1.000000, 0.000000, 0.000000)" width="181" height="14" style="fill: rgb(177, 178, 181); fill-opacity: 0.25;"/></g></g></g></svg>