<svg xmlns:xlink="http://www.w3.org/1999/xlink" width="1383.36" xmlns="http://www.w3.org/2000/svg" height="152" id="screenshot-cbd46358-06b3-8097-8002-b4308f26e3ea" viewBox="0 -42 1383.36 152" style="-webkit-print-color-adjust: exact;" fill="none" version="1.1"><g id="shape-cbd46358-06b3-8097-8002-b4308f26e3ea" width="1360" height="80" rx="0" ry="0" style="fill: rgb(0, 0, 0);"><g id="shape-cbd46358-06b3-8097-8002-b4308f275d41"><g class="fills" id="fills-cbd46358-06b3-8097-8002-b4308f275d41"><rect rx="12" ry="12" x="0" y="0" transform="matrix(1.000000, 0.000000, 0.000000, 1.000000, 0.000000, 0.000000)" width="1360" height="80" style="fill: rgb(40, 104, 151);"/></g></g><g id="shape-cbd46358-06b3-8097-8002-b4308f27baa9" mask="url(#rumext-id-3-mask0_568_289)" rx="0" ry="0" style="fill: rgb(0, 0, 0);"><defs><mask width="1360" maskUnits="userSpaceOnUse" height="80" class="svg-def" x="0" id="rumext-id-3-mask0_568_289" style="mask-type: alpha;" data-old-y="0" data-old-width="1360" data-old-x="0" y="0" data-old-height="80"><g class="svg-mask-wrapper" transform="matrix(1.000000, 0.000000, 0.000000, 1.000000, 0.000000, 0.000000)"><rect width="1360" height="80" rx="12" fill="#286897"/></g></mask></defs><g id="shape-cbd46358-06b3-8097-8002-b4308f27ce02" filter="url(#rumext-id-4-filter0_f_568_289)" rx="0" ry="0" style="fill: rgb(0, 0, 0);"><defs><filter filterUnits="userSpaceOnUse" width="175.36400000000003" height="106" color-interpolation-filters="sRGB" class="svg-def" x="1212" id="rumext-id-4-filter0_f_568_289" data-old-y="-46" data-old-width="175.36400000000003" data-old-x="1212" y="-46" data-old-height="106"><feFlood flood-opacity="0" result="BackgroundImageFix"/><feBlend mode="normal" in="SourceGraphic" in2="BackgroundImageFix" result="shape"/><feGaussianBlur stdDeviation="2" result="effect1_foregroundBlur_568_289"/></filter></defs><g id="shape-cbd46358-06b3-8097-8002-b4308f285f9e"><g class="fills" id="fills-cbd46358-06b3-8097-8002-b4308f285f9e"><path fill-rule="evenodd" clip-rule="evenodd" rx="0" ry="0" d="M1243.220,0.011C1246.610,-23.741,1267.040,-42.000,1291.730,-42.000C1307.810,-42.000,1322.090,-34.248,1331.020,-22.276C1334.880,-23.514,1339.000,-24.182,1343.270,-24.182C1365.410,-24.182,1383.360,-6.233,1383.360,15.909C1383.360,38.051,1365.410,56.000,1343.270,56.000L1291.730,56.000L1244.000,56.000L1240.180,56.000L1240.180,55.742C1226.520,53.880,1216.000,42.169,1216.000,28.000C1216.000,12.796,1228.120,0.423,1243.220,0.011ZZ" style="fill: rgb(85, 140, 180); fill-opacity: 0.6;"/></g></g></g><g id="shape-cbd46358-06b3-8097-8002-b4308f288fd0" filter="url(#rumext-id-6-filter1_f_568_289)" rx="0" ry="0" style="fill: rgb(0, 0, 0);"><defs><filter filterUnits="userSpaceOnUse" width="175.36400000000003" height="106" color-interpolation-filters="sRGB" class="svg-def" x="1161" id="rumext-id-6-filter1_f_568_289" data-old-y="8" data-old-width="175.36400000000003" data-old-x="1161" y="8" data-old-height="106"><feFlood flood-opacity="0" result="BackgroundImageFix"/><feBlend mode="normal" in="SourceGraphic" in2="BackgroundImageFix" result="shape"/><feGaussianBlur stdDeviation="2" result="effect1_foregroundBlur_568_289"/></filter></defs><g id="shape-cbd46358-06b3-8097-8002-b4308f291186"><g class="fills" id="fills-cbd46358-06b3-8097-8002-b4308f291186"><path fill-rule="evenodd" clip-rule="evenodd" rx="0" ry="0" d="M1192.220,54.011C1195.610,30.259,1216.040,12.000,1240.730,12.000C1256.810,12.000,1271.090,19.752,1280.020,31.724C1283.880,30.486,1288.000,29.818,1292.270,29.818C1314.410,29.818,1332.360,47.767,1332.360,69.909C1332.360,92.051,1314.410,110.000,1292.270,110.000L1240.730,110.000L1193.000,110.000L1189.180,110.000L1189.180,109.742C1175.520,107.880,1165.000,96.169,1165.000,82.000C1165.000,66.796,1177.120,54.423,1192.220,54.011ZZ" style="fill: rgb(85, 140, 180); fill-opacity: 0.6;"/></g></g></g></g><g id="shape-cbd46358-06b3-8097-8002-b430c804b141"><g class="fills" id="fills-cbd46358-06b3-8097-8002-b430c804b141"><rect rx="7" ry="7" x="1105" y="33" transform="matrix(1.000000, 0.000000, 0.000000, 1.000000, 0.000000, 0.000000)" width="181" height="14" style="fill: rgb(177, 178, 181); fill-opacity: 0.25;"/></g></g><g id="shape-cbd46358-06b3-8097-8002-b430e582f26a"><g class="fills" id="fills-cbd46358-06b3-8097-8002-b430e582f26a"><rect rx="7" ry="7" x="1165" y="12" transform="matrix(1.000000, 0.000000, 0.000000, 1.000000, 0.000000, 0.000000)" width="181" height="14" style="fill: rgb(177, 178, 181); fill-opacity: 0.25;"/></g></g><g id="shape-cbd46358-06b3-8097-8002-b430ec455a8d"><g class="fills" id="fills-cbd46358-06b3-8097-8002-b430ec455a8d"><rect rx="7" ry="7" x="1155" y="54" transform="matrix(1.000000, 0.000000, 0.000000, 1.000000, 0.000000, 0.000000)" width="181" height="14" style="fill: rgb(177, 178, 181); fill-opacity: 0.25;"/></g></g></g></svg>